<?xml version="1.0" encoding="UTF-8"?>
<!DOCTYPE svg PUBLIC "-//W3C//DTD SVG 1.1//EN" "http://www.w3.org/Graphics/SVG/1.1/DTD/svg11.dtd">
<svg version="1.1" xmlns="http://www.w3.org/2000/svg" xmlns:xlink="http://www.w3.org/1999/xlink" x="0" y="0" width="944" height="704" viewBox="0, 0, 944, 704">
  <defs>
    <radialGradient id="Gradient_1" gradientUnits="userSpaceOnUse" cx="543.879" cy="120.662" r="21.5">
      <stop offset="0.752" stop-color="#471F1E"/>
      <stop offset="1" stop-color="#000000" stop-opacity="0"/>
    </radialGradient>
    <radialGradient id="Gradient_2" gradientUnits="userSpaceOnUse" cx="543.879" cy="120.662" r="14">
      <stop offset="0.604" stop-color="#542523"/>
      <stop offset="0.848" stop-color="#9A4540"/>
      <stop offset="0.947" stop-color="#FFB099"/>
    </radialGradient>
    <radialGradient id="Gradient_3" gradientUnits="userSpaceOnUse" cx="-615.271" cy="120.662" r="21.5" gradientTransform="matrix(-1, 0, 0, 1, 0, 0)">
      <stop offset="0.752" stop-color="#471F1E"/>
      <stop offset="1" stop-color="#000000" stop-opacity="0"/>
    </radialGradient>
    <radialGradient id="Gradient_4" gradientUnits="userSpaceOnUse" cx="-615.271" cy="120.662" r="14" gradientTransform="matrix(-1, 0, 0, 1, 0, 0)">
      <stop offset="0.604" stop-color="#542523"/>
      <stop offset="0.848" stop-color="#9A4540"/>
      <stop offset="0.947" stop-color="#FFB099"/>
    </radialGradient>
    <radialGradient id="Gradient_5" gradientUnits="userSpaceOnUse" cx="198.912" cy="120.662" r="21.5">
      <stop offset="0.752" stop-color="#471F1E"/>
      <stop offset="1" stop-color="#000000" stop-opacity="0"/>
    </radialGradient>
    <radialGradient id="Gradient_6" gradientUnits="userSpaceOnUse" cx="198.912" cy="120.662" r="14">
      <stop offset="0.604" stop-color="#542523"/>
      <stop offset="0.848" stop-color="#9A4540"/>
      <stop offset="0.947" stop-color="#FFB099"/>
    </radialGradient>
    <radialGradient id="Gradient_7" gradientUnits="userSpaceOnUse" cx="-270.304" cy="120.662" r="21.5" gradientTransform="matrix(-1, 0, 0, 1, 0, 0)">
      <stop offset="0.752" stop-color="#471F1E"/>
      <stop offset="1" stop-color="#000000" stop-opacity="0"/>
    </radialGradient>
    <radialGradient id="Gradient_8" gradientUnits="userSpaceOnUse" cx="-270.304" cy="120.662" r="14" gradientTransform="matrix(-1, 0, 0, 1, 0, 0)">
      <stop offset="0.604" stop-color="#542523"/>
      <stop offset="0.848" stop-color="#9A4540"/>
      <stop offset="0.947" stop-color="#FFB099"/>
    </radialGradient>
  </defs>
  <g id="Layer_1">
    <g>
      <path d="M168.157,420.285 C154.369,420.442 149.476,420.793 149.476,408.866 C149.476,396.939 154.904,388.117 168.32,388.117 C178.275,388.117 183.703,392.604 185.841,399.793 C186.238,401.127 186.522,402.555 186.7,404.065 C186.7,404.065 186.7,404.065 186.7,404.065 C186.794,404.86 183.873,405.116 181.545,405.509 C180.315,405.717 178.573,402.684 178.206,403.069 C178.118,403.161 173.101,408.233 173.101,408.343 C173.101,408.343 176.888,411.487 176.888,411.487 C176.888,411.683 181.845,405.237 183.167,405.647 C185.381,406.333 186.985,405.902 186.972,406.202 C186.516,416.624 180.982,420.139 168.157,420.285 z" fill="#753431"/>
      <path d="M170.094,415.029 L175.615,419.346" fill-opacity="0" stroke="#000000" stroke-width="1.5"/>
      <path d="M164.426,416.733 L168.231,420.084" fill-opacity="0" stroke="#000000" stroke-width="1.5"/>
      <path d="M158.121,416.733 L161.415,420.084" fill-opacity="0" stroke="#000000" stroke-width="1.5"/>
    </g>
    <g>
      <path d="M192.429,280.194 C212.442,277.733 249.945,278.388 264.419,280.444 C278.892,282.501 284.009,283.883 286.514,290.712 C286.514,290.712 286.514,290.712 286.514,290.712 C286.514,290.712 286.514,290.712 286.514,290.712 C286.514,290.712 286.514,290.712 286.514,290.712 C288.363,295.753 284.924,326.184 281.19,344.799 C280.816,346.663 279.389,351.288 279.014,352.877 C278.199,357.432 275.735,356.775 274.85,358.615 C273.965,360.456 276.083,361.19 275.019,363.384 C272.635,368.301 272.284,363.544 270.434,367.147 C269.053,369.839 273.284,367.836 270.855,371.73 C266.975,377.95 264.657,379.964 257.37,380.732 C246.525,381.875 223.15,383.127 210.544,380.106 C203.043,378.308 198.381,375.398 194.656,370.491 C194.648,369.439 195.564,368.879 195.34,368.493 C195.117,368.108 192.887,368.24 192.779,367.901 C192.67,367.562 191.871,366.819 191.948,366.075 C191.968,365.887 192.183,363.496 191.714,362.517 C190.877,361.213 188.608,361.034 188.45,360.78 C187.468,359.195 186.677,356.485 185.69,354.911 C180.177,346.122 170.634,306.353 175.017,294.313 C179.399,282.272 181.958,283.282 192.429,280.194 z" fill="#C74C78"/>
      <path d="M195.949,284.876 C215.961,282.415 249.964,281.236 260.252,283.619 C270.539,286.002 278.325,287.855 280.829,294.684 C283.334,301.513 238.482,315.588 233.989,323.101 C229.496,330.614 228.4,352.285 226.608,361.828 C225.134,369.678 223.316,369.627 210.711,366.606 C206.445,365.584 200.654,365.585 198.307,364.682 C195.682,363.67 198.593,361.232 196.869,359.313 C196.117,358.476 192.283,359.078 191.313,358.041 C190.342,357.003 191.489,355.07 190.839,354.033 C185.326,345.243 174.817,307.73 179.2,295.69 C183.582,283.649 185.478,287.964 195.949,284.876 z" fill="#9B3B5E"/>
      <path d="M264.57,368.901 C263.237,368.901 255.51,371.908 255.51,367.69 C255.51,363.473 270.907,352.649 272.239,352.649 C273.571,352.649 268.291,356.607 269.648,362.037 C269.964,363.301 266.393,363.927 265.839,365.023 C264.588,367.496 265.493,368.901 264.57,368.901 z" fill="#9B3B5E"/>
    </g>
    <g>
      <g>
        <path d="M225.298,81.984 C225.298,81.984 232.377,58.702 243.135,50.12 C253.893,41.539 303.604,41.242 319.673,44.16 C335.741,47.079 344.55,56.182 353.118,64.456 C361.686,72.731 354.527,84.218 359.666,103.743 C364.805,123.268 373.013,115.661 377.547,134.886 C382.08,154.111 366.068,168.436 376.718,181.295 C387.368,194.154 377.144,206.124 377.144,206.124 C377.144,206.124 321.987,255.669 337.553,260.421 C353.118,265.173 340.661,217.976 337.553,212.201 C334.444,206.427 328.715,201.423 334.998,185.071 C341.282,168.718 307.465,182.195 306.901,145.905 C306.024,89.388 225.298,81.984 225.298,81.984 z" fill="#2F1514"/>
        <path d="M226.677,81.984 C226.677,81.984 239.244,60.69 251.123,63.53 C264.507,66.731 278.697,79.721 294.766,82.64 C310.834,85.559 321.576,87.794 330.145,96.069 C338.713,104.343 334.56,110.89 339.699,130.415 C344.839,149.939 346.271,143.469 350.804,162.695 C355.337,181.92 348.934,175.402 359.584,188.26 C370.234,201.119 347.923,233.149 347.923,233.149 C347.923,233.149 333.488,256.322 342.149,257.537 C347.406,258.275 343.358,218.562 340.249,212.788 C337.141,207.013 330.094,201.423 336.377,185.07 C342.661,168.718 308.844,182.195 308.281,145.905 C307.403,89.388 226.677,81.984 226.677,81.984 z" fill="#46201E"/>
      </g>
      <g>
        <path d="M247.347,81.984 C247.347,81.984 240.267,58.702 229.51,50.12 C218.752,41.539 169.04,41.242 152.972,44.16 C136.904,47.079 128.095,56.182 119.527,64.456 C110.958,72.731 118.118,84.218 112.979,103.743 C107.84,123.268 99.631,115.661 95.098,134.886 C90.565,154.111 106.577,168.436 95.927,181.295 C85.276,194.154 95.501,206.124 95.501,206.124 C95.501,206.124 150.658,255.669 135.092,260.421 C119.527,265.173 131.984,217.976 135.092,212.201 C138.201,206.427 143.93,201.423 137.646,185.071 C131.363,168.718 165.18,182.195 165.743,145.905 C166.621,89.388 247.347,81.984 247.347,81.984 z" fill="#2F1514"/>
        <path d="M245.967,81.984 C245.967,81.984 233.401,60.69 221.522,63.53 C208.138,66.731 193.947,79.721 177.879,82.64 C161.811,85.559 151.068,87.794 142.5,96.069 C133.932,104.343 138.084,110.89 132.945,130.415 C127.806,149.939 126.374,143.469 121.841,162.695 C117.308,181.92 123.711,175.402 113.061,188.26 C102.41,201.119 124.722,233.149 124.722,233.149 C124.722,233.149 139.157,256.322 130.496,257.537 C125.239,258.275 129.287,218.562 132.395,212.788 C135.504,207.013 142.55,201.423 136.267,185.07 C129.984,168.718 163.801,182.195 164.364,145.905 C165.242,89.388 245.967,81.984 245.967,81.984 z" fill="#46201E"/>
      </g>
    </g>
    <path d="M510.714,66.622 C534.578,59.292 636.827,57.931 650.755,64.014 C664.682,70.097 672.093,80.931 673.631,97.272 C674.337,104.768 665.803,154.341 663.497,163.867 C661.191,173.393 659.845,176.469 653.886,179.16 C651.847,180.081 627.915,181.839 621.793,183.945 C615.672,186.052 608.931,191.567 601.789,192.804 C594.647,194.042 580.104,193.707 574.357,192.853 C568.61,191.999 555.647,184.782 548.841,182.756 C542.035,180.73 512.797,179.697 508.999,177.924 C499.956,173.704 501.489,170.147 498.153,159.505 C494.817,148.864 485.206,99.828 490.43,86.906 C495.66,73.967 495.449,71.311 510.714,66.622 z" fill="#71322F"/>
    <path d="M513.855,70.529 C537.72,63.199 656.857,58.07 659.243,73.08 C661.578,87.768 658.262,96.966 651.822,102.642 C630.623,121.327 575.566,101.846 576.746,114.379 C577.451,121.875 585.158,170.321 588.648,179.48 C590.172,183.481 521.762,174.574 512.719,170.354 C503.676,166.134 503.744,157.587 500.408,146.946 C497.072,136.304 488.591,102.217 493.815,89.295 C499.045,76.356 498.591,75.218 513.855,70.529 z" fill="#592825"/>
    <g>
      <path d="M543.879,142.162 C532.005,142.162 522.379,132.536 522.379,120.662 C522.379,108.788 532.005,99.162 543.879,99.162 C555.753,99.162 565.379,108.788 565.379,120.662 C565.379,132.536 555.753,142.162 543.879,142.162 z" fill="url(#Gradient_1)"/>
      <path d="M543.879,138.662 C533.938,138.662 525.879,130.603 525.879,120.662 C525.879,110.721 533.938,102.662 543.879,102.662 C553.82,102.662 561.879,110.721 561.879,120.662 C561.879,130.603 553.82,138.662 543.879,138.662 z" fill="#FFFFFF"/>
      <path d="M543.879,134.662 C536.147,134.662 529.879,128.394 529.879,120.662 C529.879,112.93 536.147,106.662 543.879,106.662 C551.611,106.662 557.879,112.93 557.879,120.662 C557.879,128.394 551.611,134.662 543.879,134.662 z" fill="url(#Gradient_2)"/>
      <path d="M543.879,128.162 C539.737,128.162 536.379,124.804 536.379,120.662 C536.379,116.52 539.737,113.162 543.879,113.162 C548.021,113.162 551.379,116.52 551.379,120.662 C551.379,124.804 548.021,128.162 543.879,128.162 z" fill="#000000"/>
      <path d="M550.131,124.449 C549.443,124.449 548.884,123.933 548.884,123.298 C548.884,122.662 549.443,122.147 550.131,122.147 C550.82,122.147 551.379,122.662 551.379,123.298 C551.379,123.933 550.82,124.449 550.131,124.449 z" fill="#FFFFFF"/>
      <path d="M541.727,133.175 C537.011,132.802 533.208,128.777 533.208,126.523 C533.208,125.406 536.864,128.052 540.875,127.502 C544.951,126.942 549.342,124.237 553.185,122.659 C557.103,121.051 557.111,123.318 554.292,128.235 C551.473,133.152 546.442,133.549 541.727,133.175 z" fill="#FFFFFF" fill-opacity="0.418"/>
      <path d="M537.128,120.028 C535.973,120.028 535.037,119.118 535.037,117.996 C535.037,116.874 535.973,115.965 537.128,115.965 C538.283,115.965 539.219,116.874 539.219,117.996 C539.219,119.118 538.283,120.028 537.128,120.028 z" fill="#FFFFFF"/>
    </g>
    <g>
      <path d="M615.271,142.162 C627.145,142.162 636.771,132.536 636.771,120.662 C636.771,108.788 627.145,99.162 615.271,99.162 C603.397,99.162 593.771,108.788 593.771,120.662 C593.771,132.536 603.397,142.162 615.271,142.162 z" fill="url(#Gradient_3)"/>
      <path d="M615.271,138.662 C625.212,138.662 633.271,130.603 633.271,120.662 C633.271,110.721 625.212,102.662 615.271,102.662 C605.33,102.662 597.271,110.721 597.271,120.662 C597.271,130.603 605.33,138.662 615.271,138.662 z" fill="#FFFFFF"/>
      <path d="M615.271,134.662 C623.003,134.662 629.271,128.394 629.271,120.662 C629.271,112.93 623.003,106.662 615.271,106.662 C607.539,106.662 601.271,112.93 601.271,120.662 C601.271,128.394 607.539,134.662 615.271,134.662 z" fill="url(#Gradient_4)"/>
      <path d="M615.271,128.162 C619.413,128.162 622.771,124.804 622.771,120.662 C622.771,116.52 619.413,113.162 615.271,113.162 C611.129,113.162 607.771,116.52 607.771,120.662 C607.771,124.804 611.129,128.162 615.271,128.162 z" fill="#000000"/>
      <path d="M609.018,124.449 C609.707,124.449 610.265,123.933 610.265,123.298 C610.265,122.662 609.707,122.147 609.018,122.147 C608.329,122.147 607.771,122.662 607.771,123.298 C607.771,123.933 608.329,124.449 609.018,124.449 z" fill="#FFFFFF"/>
      <path d="M617.423,133.175 C622.138,132.802 625.942,128.777 625.942,126.523 C625.942,125.406 622.286,128.052 618.275,127.502 C614.199,126.942 609.808,124.237 605.965,122.659 C602.046,121.051 602.039,123.318 604.857,128.235 C607.676,133.152 612.707,133.549 617.423,133.175 z" fill="#FFFFFF" fill-opacity="0.418"/>
      <path d="M622.021,120.028 C623.176,120.028 624.112,119.118 624.112,117.996 C624.112,116.874 623.176,115.965 622.021,115.965 C620.867,115.965 619.93,116.874 619.93,117.996 C619.93,119.118 620.867,120.028 622.021,120.028 z" fill="#FFFFFF"/>
    </g>
    <path d="M578.143,111.605 C575.805,117.479 579.709,122.838 582.937,128.027 C588.659,137.223 599.39,157.363 593.771,160.18 C588.151,162.997 579.54,163.539 576.561,161.418 C573.581,159.298 574.487,111.546 574.487,111.546 C574.487,111.546 580.48,105.732 578.143,111.605 z" fill="#592825"/>
    <path d="M585.108,187.398 C577.217,187.398 570.393,187.491 570.3,181.978 C570.207,176.466 577.217,177.365 585.108,177.365 C592.998,177.365 599.768,175.901 599.395,182.381 C599.022,188.862 592.998,187.398 585.108,187.398 z" fill="#592825"/>
    <path d="M575.651,184.731 C573.764,184.121 572.074,181.86 572.048,180.621 C571.965,176.723 578.174,180.354 585.219,180.354 C592.264,180.354 597.981,176.098 597.648,180.68 C597.547,182.064 597.221,184.18 596.294,184.722 C594.149,185.976 590.309,185.406 585.392,185.406 C585.392,185.406 577.539,185.341 575.651,184.731 z" fill="#301614"/>
    <path d="M533.332,143.677 C520.587,143.677 520.999,118.25 520.999,112.334 C520.999,106.419 530.592,96.967 543.337,96.967 C556.082,96.967 567.152,106.419 567.152,112.334 C567.152,118.25 571.993,140.494 559.248,140.494 z" fill="#49211F"/>
    <path d="M625.934,144.283 C638.678,144.283 638.347,118.25 638.347,112.334 C638.347,106.419 628.754,96.967 616.009,96.967 C603.265,96.967 592.194,106.419 592.194,112.334 C592.194,118.25 590.455,140.949 603.2,140.949 z" fill="#49211F"/>
    <g>
      <path d="M233.52,407.609 C210.579,407.609 231.464,398.241 195.553,392.988 C190.775,392.289 197.709,375.922 195.406,372.656 C191.061,366.496 223.434,376.278 234.996,376.278 C247.178,376.278 276.268,366.552 270.977,372.318 C268.026,375.534 276.146,391.563 271.607,392.094 C233.39,396.569 256.462,407.609 233.52,407.609 z" fill="#6886E6"/>
      <path d="M234.367,406.246 C218.589,407.079 223.127,400.079 216.191,395.43 C213.059,393.331 208.179,393.636 197.01,392.002 C192.233,391.303 201.996,379.472 199.693,376.207 C195.348,370.047 222.843,378.863 234.406,378.863 C246.588,378.863 255.432,371.61 258.292,378.596 C261.152,385.583 259.198,393.247 254.647,393.696 C233.544,395.779 251.12,405.361 234.367,406.246 z" fill="#425592"/>
    </g>
    <g>
      <path d="M199.487,549.213 C176.412,549.213 169.594,554.05 169.594,540.384 C169.594,526.718 181.046,515.962 204.121,515.962 C227.197,515.962 227.415,524.304 227.415,537.97 C227.415,551.636 222.562,549.213 199.487,549.213 z" fill="#D2D2D2"/>
      <path d="M200.388,543.988 C181.154,543.988 174.983,550.897 174.983,541.76 C174.983,532.623 183.614,524.262 202.847,524.262 C222.081,524.262 223.789,531.011 223.789,540.148 C223.789,549.285 219.622,543.988 200.388,543.988 z" fill="#FFFFFF"/>
    </g>
    <g>
      <path d="M193.281,392.437 C195.443,388.21 207.907,391.921 211.917,393.495 C215.927,395.069 224.929,401.495 225.911,405.607 C226.071,406.278 226.188,408.151 226.273,410.818 C226.29,411.379 226.307,411.975 226.322,412.603 C226.322,412.603 224.577,413.518 224.577,413.518 C224.6,414.502 226.365,414.648 226.382,415.771 C226.4,416.944 226.234,417.553 226.245,418.845 C226.245,418.845 226.245,418.845 226.245,418.845 C226.254,419.785 224.506,419.907 224.513,420.899 C224.556,427.349 224.747,434.534 225.309,440.936 C225.473,442.805 227.082,443.929 227.228,445.625 C227.435,448.034 226.869,447.631 226.971,449.503 C226.971,449.503 224.854,451.857 224.854,451.857 C224.908,452.836 227.243,454.665 227.129,455.497 C226.852,457.527 226.642,458.659 226.273,459.112 C224.561,461.21 218.568,456.304 213.21,454.998 C207.852,453.692 205.252,453.927 198.511,454.645 C191.77,455.362 185.218,457.942 184.468,457.059 C183.718,456.177 185.387,453.442 185.418,452.355 C185.45,451.267 183.686,449.605 183.852,448.615 C184.017,447.625 185.199,442.449 184.819,440.522 C184.398,438.382 188.988,428.159 191.331,408.339 C191.477,407.096 190.477,405.932 190.62,404.768 C190.762,403.619 190.901,402.514 191.037,401.46 C191.292,399.495 191.925,400.597 192.168,398.876 C192.445,396.911 191.592,397.704 191.845,396.171 C192.335,393.198 192.941,393.1 193.281,392.437 z" fill="#6886E6"/>
      <path d="M212.923,391.752 C216.933,393.326 221.36,398.801 222.341,402.914 C222.501,403.584 224.284,405.672 224.368,408.339 C224.386,408.9 222.918,410.732 222.933,411.36 C222.933,411.36 218.287,414.569 218.287,414.569 C218.311,415.553 223.169,416.064 223.186,417.187 C226.254,419.785 222.419,420.757 222.426,421.748 C222.47,428.199 222.202,434.097 222.764,440.499 C222.928,442.368 225.067,443.364 225.213,445.06 C225.42,447.468 220.634,446.82 220.737,448.691 C220.737,448.691 222.088,451.985 222.088,451.985 C222.141,452.964 217.641,451.068 217.527,451.901 C217.249,453.93 223.133,456.516 222.764,456.969 C221.052,459.067 219.169,454.559 213.811,453.252 C208.453,451.946 205.687,451.352 198.946,452.07 C192.205,452.787 187.364,456.669 186.614,455.786 C185.864,454.903 189.37,453.411 189.402,452.323 C189.433,451.236 185.942,449.681 186.108,448.691 C186.273,447.701 186.678,442.972 186.614,440.583 C186.551,438.195 190.938,429.443 193.281,409.623 C193.427,408.38 193.137,406.917 193.281,405.753 C193.422,404.605 192.392,403.212 192.529,402.159 C192.783,400.194 194.658,400.853 194.9,399.131 C195.178,397.166 194.295,395.6 196.25,393.582 C198.205,391.563 212.923,391.752 212.923,391.752 z" fill="#425592"/>
    </g>
    <g>
      <path d="M186.021,450.754 C188.369,445.993 208.094,448.788 212.449,450.561 C216.805,452.333 223.207,453.951 224.273,458.583 C224.446,459.338 225.227,467.359 225.319,470.362 C225.338,470.994 225.249,472.069 225.265,472.776 C225.265,472.776 223.065,474.064 223.065,474.064 C223.09,475.172 224.978,475.107 224.997,476.371 C225.016,477.693 225.091,478.887 225.104,480.342 C226.445,481.545 223.733,482.123 223.74,483.24 C223.788,490.505 225.442,497.979 226.052,505.19 C226.23,507.295 227.206,508.561 227.365,510.471 C227.59,513.184 226.975,512.73 227.086,514.839 C227.086,514.839 224.787,517.49 224.787,517.49 C224.845,518.592 227.382,520.652 227.258,521.59 C226.956,523.875 226.728,525.151 226.327,525.66 C224.468,528.024 215.648,522.387 209.828,520.916 C204.009,519.445 199.023,520.009 191.702,520.817 C184.38,521.625 177.263,524.531 176.449,523.537 C175.634,522.542 177.447,519.463 177.481,518.238 C177.515,517.013 175.6,515.141 175.78,514.026 C175.959,512.911 177.243,507.082 176.831,504.911 C176.373,502.5 181.358,490.987 183.903,468.664 C184.062,467.264 182.976,465.953 183.132,464.642 C183.285,463.348 183.436,462.103 183.585,460.916 C183.861,458.704 184.549,459.945 184.812,458.006 C185.113,455.793 184.187,456.686 184.461,454.96 C184.994,451.611 185.652,451.501 186.021,450.754 z" fill="#6886E6"/>
      <path d="M202.061,448.117 C206.416,449.89 220.503,452.038 221.569,456.67 C221.743,457.426 221.856,465.362 221.948,468.366 C221.967,468.998 220.372,471.061 220.388,471.768 C220.388,471.768 215.343,475.383 215.343,475.383 C215.368,476.491 220.645,477.067 220.663,478.332 C223.996,481.257 219.83,482.351 219.838,483.468 C219.885,490.733 219.594,497.376 220.205,504.586 C220.383,506.692 225.018,507.924 225.176,509.834 C225.402,512.547 220.539,512.034 220.65,514.142 C220.65,514.142 221.511,518.092 221.511,518.092 C221.569,519.194 219.409,518.518 219.285,519.456 C218.984,521.741 223.851,522.896 223.45,523.406 C221.591,525.77 216.3,520.421 210.48,518.95 C204.661,517.479 199.495,517.109 192.174,517.917 C184.852,518.725 179.595,523.097 178.78,522.103 C177.966,521.108 181.773,519.427 181.808,518.202 C181.842,516.978 178.05,515.227 178.23,514.112 C178.41,512.997 178.849,507.67 178.78,504.98 C178.712,502.29 183.476,492.433 186.021,470.11 C186.18,468.711 185.865,467.063 186.021,465.752 C186.174,464.459 185.056,462.89 185.204,461.703 C185.48,459.491 187.516,460.233 187.78,458.294 C188.081,456.08 191.157,452.373 193.281,450.1 C195.404,447.827 202.061,448.117 202.061,448.117 z" fill="#425592"/>
    </g>
    <g>
      <path d="M266.879,549.213 C289.954,549.213 296.772,554.05 296.772,540.384 C296.772,526.718 285.32,515.962 262.245,515.962 C239.169,515.962 238.951,524.304 238.951,537.97 C238.951,551.636 243.804,549.213 266.879,549.213 z" fill="#D2D2D2"/>
      <path d="M265.978,543.988 C285.212,543.988 291.383,550.897 291.383,541.76 C291.383,532.623 282.752,524.262 263.519,524.262 C244.285,524.262 242.577,531.011 242.577,540.148 C242.577,549.285 246.745,543.988 265.978,543.988 z" fill="#FFFFFF"/>
    </g>
    <g>
      <path d="M273.085,392.437 C270.923,388.21 258.459,391.921 254.449,393.495 C250.439,395.069 241.437,401.495 240.455,405.607 C240.295,406.278 240.178,408.151 240.094,410.818 C240.076,411.379 240.059,411.976 240.044,412.603 C240.044,412.603 241.789,413.518 241.789,413.518 C241.766,414.502 240.001,414.648 239.984,415.771 C239.966,416.944 240.132,417.553 240.121,418.845 C240.121,418.845 240.121,418.845 240.121,418.845 C240.112,419.785 241.86,419.907 241.854,420.899 C241.81,427.35 241.619,434.534 241.057,440.936 C240.893,442.805 239.284,443.929 239.138,445.625 C238.931,448.034 239.497,447.631 239.395,449.503 C239.395,449.503 241.512,451.857 241.512,451.857 C241.459,452.836 239.123,454.665 239.237,455.498 C239.514,457.527 239.724,458.659 240.093,459.112 C241.805,461.211 247.798,456.304 253.156,454.998 C258.514,453.692 261.114,453.928 267.855,454.645 C274.596,455.363 281.148,457.942 281.898,457.06 C282.648,456.177 280.979,453.442 280.948,452.355 C280.916,451.267 282.68,449.605 282.514,448.615 C282.349,447.625 281.167,442.449 281.547,440.522 C281.968,438.382 277.378,428.159 275.035,408.339 C274.889,407.096 275.889,405.932 275.746,404.768 C275.604,403.619 275.465,402.514 275.329,401.46 C275.074,399.495 274.441,400.598 274.198,398.876 C273.921,396.911 274.774,397.704 274.521,396.171 C274.031,393.198 273.425,393.1 273.085,392.437 z" fill="#6886E6"/>
      <path d="M253.443,391.752 C249.433,393.326 245.006,398.801 244.025,402.914 C243.865,403.584 242.082,405.673 241.998,408.339 C241.98,408.9 243.448,410.732 243.434,411.36 C243.434,411.36 248.079,414.569 248.079,414.569 C248.055,415.553 243.197,416.065 243.18,417.188 C240.112,419.785 243.947,420.757 243.94,421.749 C243.896,428.199 244.164,434.097 243.602,440.499 C243.438,442.368 241.299,443.364 241.153,445.06 C240.946,447.469 246.518,447.041 245.63,448.691 C241.212,456.901 243.234,456.516 243.602,456.969 C245.314,459.067 247.197,454.559 252.555,453.252 C257.913,451.946 260.68,451.353 267.42,452.07 C274.161,452.787 279.002,456.669 279.752,455.786 C280.502,454.903 276.996,453.411 276.965,452.323 C276.933,451.236 280.424,449.681 280.258,448.691 C280.093,447.701 273.461,440.329 273.525,437.941 C273.588,435.553 271.839,432.028 269.496,412.207 C269.349,410.965 269.476,406.368 269.333,405.204 C269.192,404.056 265.072,401.697 264.936,400.644 C264.681,398.679 267.133,399.108 266.89,397.386 C266.613,395.421 262.004,392.5 260.049,390.482 C258.094,388.464 253.443,391.752 253.443,391.752 z" fill="#425592"/>
    </g>
    <g>
      <path d="M280.345,450.754 C277.997,445.993 258.272,448.788 253.917,450.561 C249.561,452.333 243.159,453.951 242.093,458.583 C241.92,459.338 241.139,467.359 241.048,470.362 C241.028,470.994 241.117,472.069 241.101,472.776 C241.101,472.776 243.301,474.064 243.301,474.064 C243.276,475.172 241.388,475.107 241.369,476.372 C241.35,477.693 241.275,478.887 241.262,480.342 C239.921,481.545 242.633,482.123 242.626,483.24 C242.578,490.505 240.924,497.98 240.314,505.19 C240.136,507.296 239.16,508.561 239.001,510.471 C238.776,513.184 239.391,512.731 239.28,514.839 C239.28,514.839 241.579,517.49 241.579,517.49 C241.521,518.593 238.984,520.652 239.108,521.59 C239.41,523.875 239.638,525.151 240.039,525.661 C241.898,528.024 250.718,522.387 256.538,520.916 C262.357,519.445 267.343,520.009 274.664,520.817 C281.986,521.625 289.103,524.531 289.917,523.537 C290.732,522.542 288.919,519.463 288.885,518.238 C288.851,517.013 290.766,515.141 290.586,514.026 C290.407,512.911 289.123,507.082 289.535,504.911 C289.993,502.501 285.008,490.987 282.463,468.664 C282.304,467.264 283.39,465.953 283.234,464.642 C283.081,463.349 282.93,462.103 282.782,460.917 C282.505,458.704 281.817,459.945 281.554,458.006 C281.253,455.793 282.179,456.686 281.905,454.96 C281.372,451.611 280.714,451.501 280.345,450.754 z" fill="#6886E6"/>
      <path d="M262.308,448.105 C257.952,449.878 249.323,448.746 248.257,453.378 C248.083,454.134 244.51,465.363 244.419,468.366 C244.399,468.998 245.994,471.061 245.978,471.768 C245.978,471.768 247.997,474.261 247.997,474.261 C247.971,475.369 249.807,478.86 249.789,480.125 C246.456,483.05 249.796,489.757 249.789,490.874 C249.741,498.139 246.772,497.376 246.162,504.586 C245.983,506.692 244.898,507.694 244.74,509.604 C244.514,512.317 245.828,512.034 245.716,514.142 C245.716,514.142 244.855,518.092 244.855,518.092 C244.797,519.195 246.957,518.518 247.081,519.456 C247.382,521.742 244.99,521.31 245.391,521.82 C247.25,524.183 250.066,520.422 255.886,518.95 C261.705,517.479 266.871,517.109 274.192,517.917 C282.591,517.953 282.56,515.919 282.525,514.694 C282.491,513.469 283.76,511.684 283.581,510.569 C283.401,509.454 285.836,506.638 282.525,493.798 C279.972,486.145 279.182,497.369 276.637,475.046 C276.478,473.647 273.68,469.063 273.525,467.752 C273.371,466.458 278.119,463.605 277.971,462.418 C277.695,460.205 276.509,459.456 276.245,457.517 C275.944,455.304 279.245,453.654 277.121,451.381 C274.998,449.108 262.308,448.105 262.308,448.105 z" fill="#425592"/>
    </g>
    <g>
      <path d="M170.092,282.479 C172.005,282.205 195.508,278.896 195.781,280.81 L183.638,293.908 C183.912,295.821 180.934,314.413 179.021,314.686 L172.179,327.492 C170.266,327.765 158.332,295.547 158.058,293.633 L151.982,293.753 C151.708,291.84 156.038,287.343 157.952,287.07 z" fill="#C74C78"/>
      <path d="M152.289,292.76 C153.434,289.159 159.091,291.001 161.99,292.006 C164.89,293.011 175.045,296.093 176.062,299.382 C176.228,299.918 177.12,301.178 177.398,303.348 C177.457,303.805 175.615,305.27 175.678,305.782 C175.678,305.782 175.507,307.145 175.507,307.145 C175.604,307.947 175.901,307.753 176.005,308.668 C176.114,309.624 175.082,309.307 175.196,310.361 C175.196,310.361 175.621,310.751 175.215,311.681 C174.81,312.61 172.862,312.687 172.948,313.496 C173.51,318.758 174.234,324.609 175.15,329.795 C175.417,331.31 176.621,332.115 176.861,333.49 C177.203,335.441 176.779,335.152 177.003,336.673 C177.003,336.673 175.735,338.742 175.735,338.742 C175.853,339.537 177.617,340.867 177.607,341.555 C177.582,343.23 177.531,344.17 177.313,344.565 C176.304,346.397 171.761,342.81 167.953,342.118 C164.145,341.425 162.368,341.799 157.772,342.855 C153.175,343.91 148.863,346.473 148.272,345.805 C147.681,345.136 148.609,342.788 148.541,341.898 C148.473,341.008 147.118,339.774 147.151,338.955 C147.183,338.135 147.573,333.828 147.152,332.282 C146.684,330.564 148.538,326.773 148.522,310.432 C148.521,309.407 149.773,305.208 150.102,303.662 C150.43,302.117 149.873,301.217 149.898,299.795 C149.928,298.172 151.353,297.602 151.401,296.333 C151.495,293.872 152.109,293.325 152.289,292.76 z" fill="#C74C78"/>
      <path d="M166.482,287.646 C172.746,285.997 183.48,283.6 184.497,286.888 C184.663,287.424 184.277,308.644 182.119,309.947 C179.961,311.25 177.419,310.07 175.979,310.444 C174.539,310.818 173.577,308.653 173.152,309.895 C172.727,311.138 174.133,312.557 174.529,313.511 C174.925,314.464 172.813,317.319 172.9,318.128 C173.461,323.391 172.44,324.43 173.356,329.616 C173.623,331.131 175.182,331.794 175.423,333.169 C175.765,335.12 172.406,334.924 172.631,336.445 C172.631,336.445 173.836,339.04 173.836,339.04 C173.953,339.835 170.689,338.601 170.679,339.289 C170.654,340.964 174.931,342.665 174.713,343.06 C173.704,344.893 172.032,341.344 168.224,340.651 C164.415,339.958 162.456,339.667 157.86,340.722 C153.263,341.778 150.24,345.284 149.65,344.616 C149.059,343.947 151.357,342.485 151.289,341.595 C151.221,340.705 148.682,339.68 148.715,338.86 C148.747,338.04 148.637,334.151 148.397,332.206 C148.156,330.261 150.465,322.812 150.449,306.47 C150.448,305.445 151.616,305.454 151.619,304.494 C151.622,303.547 151.779,302.343 151.787,301.473 C151.8,299.852 152.579,299.531 152.604,298.11 C152.634,296.486 152.728,296.11 153.912,294.326 C155.096,292.543 166.482,287.646 166.482,287.646 z" fill="#9B3B5E"/>
    </g>
    <g>
      <path d="M149.57,342.685 C150.871,338.843 165.325,339.467 168.611,340.494 C171.898,341.52 176.648,342.269 177.798,345.748 C177.986,346.316 179.21,352.423 179.524,354.725 C179.59,355.21 179.614,356.044 179.684,356.586 C179.684,356.586 178.204,357.747 178.204,357.747 C178.314,358.597 179.669,358.401 179.787,359.372 C179.91,360.386 180.063,361.299 180.192,362.417 C181.258,363.238 179.35,363.892 179.447,364.751 C180.081,370.334 181.889,375.954 182.924,381.451 C183.226,383.056 183.569,382.614 183.841,384.071 C183.376,386.091 181.711,387.634 181.711,387.634 C181.844,388.477 183.423,389.751 183.411,390.482 C183.382,392.263 183.496,393.244 183.249,393.666 C182.104,395.628 176.84,395.48 172.522,394.799 C168.204,394.117 163.01,396.236 158.85,399.229 C154.689,402.221 153.568,406.331 150.373,406.906 C147.178,407.481 149.734,400.212 149.658,399.267 C149.582,398.323 148.047,397.031 148.084,396.16 C148.122,395.288 148.567,390.707 148.091,389.07 C147.562,387.251 149.526,373.984 149.52,356.622 C149.52,355.533 148.628,354.609 148.632,353.589 C148.636,352.582 148.643,351.613 148.652,350.689 C148.668,348.966 149.267,349.867 149.297,348.356 C149.332,346.63 148.737,347.389 148.793,346.04 C148.9,343.424 149.366,343.289 149.57,342.685 z" fill="#C74C78"/>
      <path d="M160.919,339.418 C164.206,340.444 174.541,341.007 175.691,344.487 C175.879,345.054 176.615,351.149 176.928,353.451 C176.994,353.936 176.014,355.645 176.084,356.188 C176.084,356.188 172.744,359.358 172.744,359.358 C172.854,360.208 176.706,360.243 176.824,361.214 C179.468,363.206 176.555,364.37 176.652,365.228 C177.285,370.811 177.623,375.941 178.658,381.439 C178.96,383.044 182.208,381.885 182.48,383.342 C182.866,385.411 178.785,385.454 179.039,387.067 C179.039,387.067 181.185,389.827 181.185,389.827 C181.317,390.671 179.132,390.871 179.12,391.601 C179.091,393.382 181.958,392.515 181.711,392.938 C180.565,394.899 177.148,393.918 172.83,393.237 C168.513,392.555 164.25,394.584 159.037,395.772 C153.825,396.959 151.771,402.83 151.102,402.128 C150.432,401.427 152.045,397.688 151.969,396.743 C151.893,395.799 149.82,396.908 149.858,396.037 C149.896,395.165 149.773,391.035 149.502,388.972 C149.231,386.908 151.172,374.933 151.166,357.57 C151.166,356.482 150.803,355.239 150.807,354.219 C150.811,353.212 149.875,352.093 149.884,351.169 C149.901,349.446 151.43,349.859 151.461,348.348 C151.495,346.622 153.408,343.534 154.751,341.622 C156.095,339.71 160.919,339.418 160.919,339.418 z" fill="#9B3B5E"/>
    </g>
    <g>
      <path d="M294.057,422.012 C307.845,422.169 312.738,422.52 312.738,410.593 C312.738,398.665 307.31,389.844 293.894,389.844 C283.939,389.844 278.511,394.331 276.373,401.52 C275.976,402.854 275.692,404.282 275.514,405.791 C275.514,405.791 275.514,405.791 275.514,405.791 C275.42,406.587 278.341,406.843 280.669,407.236 C281.899,407.444 283.641,404.41 284.008,404.796 C284.096,404.888 289.113,409.96 289.113,410.07 C289.113,410.07 285.326,413.214 285.326,413.214 C285.326,413.41 280.369,406.964 279.046,407.374 C276.833,408.06 275.229,407.629 275.242,407.929 C275.698,418.351 281.232,421.866 294.057,422.012 z" fill="#753431"/>
      <path d="M293.12,416.756 L287.598,421.073" fill-opacity="0" stroke="#000000" stroke-width="1.5"/>
      <path d="M298.788,418.46 L294.982,421.811" fill-opacity="0" stroke="#000000" stroke-width="1.5"/>
      <path d="M305.093,418.46 L301.798,421.811" fill-opacity="0" stroke="#000000" stroke-width="1.5"/>
    </g>
    <g>
      <path d="M292.122,284.206 C290.209,283.932 266.706,280.623 266.433,282.537 L278.576,295.635 C278.302,297.548 281.28,316.14 283.193,316.413 L290.035,329.219 C291.948,329.492 303.882,297.274 304.155,295.36 L310.232,295.48 C310.506,293.566 306.176,289.07 304.262,288.796 z" fill="#C74C78"/>
      <path d="M309.925,294.487 C308.78,290.886 303.123,292.728 300.223,293.732 C297.324,294.737 287.168,297.82 286.152,301.109 C285.986,301.645 285.094,302.904 284.816,305.075 C284.757,305.532 286.598,306.997 286.536,307.508 C286.536,307.508 286.707,308.872 286.707,308.872 C286.609,309.674 286.313,309.479 286.208,310.395 C286.099,311.351 287.132,311.034 287.018,312.088 C287.018,312.088 286.593,312.478 286.998,313.407 C287.404,314.337 289.352,314.414 289.266,315.223 C288.704,320.485 287.98,326.336 287.064,331.522 C286.797,333.037 285.593,333.842 285.353,335.216 C285.011,337.168 285.435,336.879 285.21,338.4 C285.21,338.4 286.478,340.469 286.478,340.469 C286.361,341.264 284.597,342.594 284.607,343.282 C284.631,344.957 284.683,345.897 284.901,346.292 C285.91,348.124 290.453,344.537 294.261,343.844 C298.069,343.152 299.846,343.526 304.442,344.582 C309.038,345.637 313.351,348.2 313.942,347.532 C314.533,346.863 313.605,344.515 313.673,343.625 C313.741,342.735 315.096,341.501 315.063,340.682 C315.03,339.862 314.641,335.555 315.062,334.008 C315.529,332.291 313.676,328.5 313.691,312.159 C313.692,311.134 312.44,306.935 312.112,305.389 C311.784,303.844 312.341,302.944 312.315,301.522 C312.286,299.898 310.86,299.329 310.812,298.06 C310.719,295.599 310.104,295.052 309.925,294.487 z" fill="#C74C78"/>
      <path d="M291.662,290.881 C285.397,289.233 267.449,284.269 266.432,287.557 C266.267,288.093 267.568,299.891 269.725,301.193 C271.883,302.496 284.795,311.797 286.235,312.171 C287.675,312.545 288.637,310.379 289.062,311.622 C289.487,312.865 288.081,314.284 287.685,315.238 C287.288,316.191 289.401,319.046 289.314,319.855 C288.752,325.118 289.774,326.157 288.858,331.343 C288.591,332.858 287.031,333.521 286.791,334.895 C286.449,336.847 289.808,336.651 289.583,338.172 C289.583,338.172 288.378,340.767 288.378,340.767 C288.26,341.562 291.525,340.328 291.535,341.016 C291.56,342.691 287.283,344.392 287.501,344.787 C288.51,346.62 290.182,343.07 293.99,342.378 C297.798,341.685 296.635,342.163 301.231,343.218 C307.87,343.201 303.998,338.472 303.965,337.652 C303.933,336.833 303.92,334.813 304.161,332.868 C304.401,330.923 301.509,333.294 301.524,316.952 C301.525,315.927 301.625,312.932 301.622,311.972 C301.619,311.025 300.458,309.034 300.45,308.164 C300.437,306.543 299.5,305.387 299.474,303.965 C299.444,302.342 297.956,300.086 296.772,298.302 C295.589,296.518 291.662,290.881 291.662,290.881 z" fill="#9B3B5E"/>
    </g>
    <g>
      <path d="M312.643,344.412 C311.342,340.57 296.889,341.194 293.602,342.221 C290.316,343.247 285.566,343.996 284.416,347.475 C284.228,348.042 283.004,354.15 282.69,356.452 C282.624,356.937 282.6,357.771 282.53,358.313 C282.53,358.313 284.01,359.474 284.01,359.474 C283.9,360.324 282.544,360.128 282.427,361.099 C282.304,362.113 282.151,363.026 282.022,364.144 C280.956,364.965 282.864,365.619 282.766,366.477 C282.133,372.061 280.324,377.681 279.29,383.178 C278.988,384.783 278.645,384.341 278.373,385.798 C278.838,387.818 280.503,389.361 280.503,389.361 C280.37,390.204 278.79,391.478 278.802,392.209 C278.831,393.99 278.717,394.971 278.964,395.393 C280.11,397.355 285.374,397.207 289.692,396.526 C294.009,395.844 299.204,397.963 303.364,400.956 C307.525,403.948 308.646,408.058 311.841,408.633 C315.035,409.208 312.479,401.939 312.556,400.994 C312.632,400.05 314.167,398.758 314.13,397.887 C314.092,397.015 313.647,392.434 314.123,390.796 C314.652,388.978 312.714,376.594 312.72,359.232 C312.72,358.143 313.586,356.336 313.582,355.315 C313.578,354.309 313.571,353.34 313.562,352.416 C313.546,350.693 312.947,351.594 312.917,350.083 C312.882,348.357 313.476,349.116 313.421,347.767 C313.313,345.151 312.848,345.016 312.643,344.412 z" fill="#C74C78"/>
      <path d="M297.227,340.511 C293.94,341.538 287.673,342.734 286.523,346.214 C286.335,346.781 285.599,352.876 285.285,355.178 C285.219,355.663 286.2,357.372 286.13,357.915 C286.13,357.915 289.47,361.085 289.47,361.085 C289.36,361.935 285.508,361.97 285.39,362.941 C282.746,364.933 285.659,366.096 285.562,366.955 C284.928,372.538 284.591,377.668 283.556,383.166 C283.254,384.771 280.005,383.612 279.734,385.069 C279.347,387.138 283.429,387.181 283.175,388.794 C283.175,388.794 281.029,391.554 281.029,391.554 C280.896,392.397 283.082,392.598 283.094,393.328 C283.123,395.109 280.256,394.242 280.503,394.664 C281.649,396.626 285.066,395.645 289.383,394.963 C293.701,394.282 299.21,393.914 303.176,397.499 C307.263,401.192 310.653,406.373 311.323,405.671 C311.992,404.97 310.168,399.415 310.245,398.47 C312.318,396.892 309.973,392.545 310.245,390.482 C310.516,388.419 306.303,379.133 306.309,361.771 C306.309,360.682 306.118,358.885 306.114,357.865 C306.109,356.858 307.099,355.176 307.09,354.252 C307.073,352.529 306.827,351.467 306.797,349.956 C306.762,348.23 306.461,345.033 305.117,343.121 C303.773,341.209 297.227,340.511 297.227,340.511 z" fill="#9B3B5E"/>
    </g>
    <g>
      <path d="M165.747,66.622 C189.611,59.292 291.86,57.931 305.788,64.014 C319.716,70.097 327.127,80.931 328.665,97.272 C329.37,104.768 320.837,154.341 318.531,163.867 C316.225,173.393 314.879,176.469 308.919,179.16 C306.88,180.081 282.948,181.839 276.827,183.945 C270.705,186.052 263.965,191.567 256.822,192.804 C249.68,194.042 235.138,193.707 229.391,192.853 C223.644,191.999 210.68,184.782 203.874,182.756 C197.068,180.73 167.83,179.697 164.032,177.924 C154.989,173.704 156.522,170.147 153.186,159.505 C149.85,148.864 140.24,99.828 145.463,86.906 C150.693,73.967 150.482,71.311 165.747,66.622 z" fill="#71322F"/>
      <path d="M168.889,70.529 C192.753,63.199 311.89,58.07 314.276,73.08 C316.611,87.768 313.295,96.966 306.856,102.642 C285.656,121.327 230.6,101.846 231.779,114.379 C232.485,121.875 240.192,170.321 243.681,179.48 C245.205,183.481 176.795,174.574 167.752,170.354 C158.709,166.134 158.778,157.587 155.441,146.946 C152.105,136.304 143.625,102.217 148.848,89.295 C154.078,76.356 153.624,75.218 168.889,70.529 z" fill="#592825"/>
      <g>
        <path d="M198.912,142.162 C187.038,142.162 177.412,132.536 177.412,120.662 C177.412,108.788 187.038,99.162 198.912,99.162 C210.786,99.162 220.412,108.788 220.412,120.662 C220.412,132.536 210.786,142.162 198.912,142.162 z" fill="url(#Gradient_5)"/>
        <path d="M198.912,138.662 C188.971,138.662 180.912,130.603 180.912,120.662 C180.912,110.721 188.971,102.662 198.912,102.662 C208.853,102.662 216.912,110.721 216.912,120.662 C216.912,130.603 208.853,138.662 198.912,138.662 z" fill="#FFFFFF"/>
        <path d="M198.912,134.662 C191.18,134.662 184.912,128.394 184.912,120.662 C184.912,112.93 191.18,106.662 198.912,106.662 C206.644,106.662 212.912,112.93 212.912,120.662 C212.912,128.394 206.644,134.662 198.912,134.662 z" fill="url(#Gradient_6)"/>
        <path d="M198.912,128.162 C194.77,128.162 191.412,124.804 191.412,120.662 C191.412,116.52 194.77,113.162 198.912,113.162 C203.054,113.162 206.412,116.52 206.412,120.662 C206.412,124.804 203.054,128.162 198.912,128.162 z" fill="#000000"/>
        <path d="M205.165,124.449 C204.476,124.449 203.917,123.933 203.917,123.298 C203.917,122.662 204.476,122.147 205.165,122.147 C205.854,122.147 206.412,122.662 206.412,123.298 C206.412,123.933 205.854,124.449 205.165,124.449 z" fill="#FFFFFF"/>
        <path d="M196.76,133.175 C192.044,132.802 188.241,128.777 188.241,126.523 C188.241,125.406 191.897,128.052 195.908,127.502 C199.984,126.942 204.375,124.237 208.218,122.659 C212.136,121.051 212.144,123.318 209.325,128.235 C206.507,133.152 201.476,133.549 196.76,133.175 z" fill="#FFFFFF" fill-opacity="0.418"/>
        <path d="M192.161,120.028 C191.007,120.028 190.07,119.118 190.07,117.996 C190.07,116.874 191.007,115.965 192.161,115.965 C193.316,115.965 194.252,116.874 194.252,117.996 C194.252,119.118 193.316,120.028 192.161,120.028 z" fill="#FFFFFF"/>
      </g>
      <g>
        <path d="M270.304,142.162 C282.178,142.162 291.804,132.536 291.804,120.662 C291.804,108.788 282.178,99.162 270.304,99.162 C258.43,99.162 248.804,108.788 248.804,120.662 C248.804,132.536 258.43,142.162 270.304,142.162 z" fill="url(#Gradient_7)"/>
        <path d="M270.304,138.662 C280.245,138.662 288.304,130.603 288.304,120.662 C288.304,110.721 280.245,102.662 270.304,102.662 C260.363,102.662 252.304,110.721 252.304,120.662 C252.304,130.603 260.363,138.662 270.304,138.662 z" fill="#FFFFFF"/>
        <path d="M270.304,134.662 C278.036,134.662 284.304,128.394 284.304,120.662 C284.304,112.93 278.036,106.662 270.304,106.662 C262.572,106.662 256.304,112.93 256.304,120.662 C256.304,128.394 262.572,134.662 270.304,134.662 z" fill="url(#Gradient_8)"/>
        <path d="M270.304,128.162 C274.446,128.162 277.804,124.804 277.804,120.662 C277.804,116.52 274.446,113.162 270.304,113.162 C266.162,113.162 262.804,116.52 262.804,120.662 C262.804,124.804 266.162,128.162 270.304,128.162 z" fill="#000000"/>
        <path d="M264.051,124.449 C264.74,124.449 265.299,123.933 265.299,123.298 C265.299,122.662 264.74,122.147 264.051,122.147 C263.362,122.147 262.804,122.662 262.804,123.298 C262.804,123.933 263.362,124.449 264.051,124.449 z" fill="#FFFFFF"/>
        <path d="M272.456,133.175 C277.172,132.802 280.975,128.777 280.975,126.523 C280.975,125.406 277.319,128.052 273.308,127.502 C269.232,126.942 264.841,124.237 260.998,122.659 C257.08,121.051 257.072,123.318 259.891,128.235 C262.709,133.152 267.74,133.549 272.456,133.175 z" fill="#FFFFFF" fill-opacity="0.418"/>
        <path d="M277.055,120.028 C278.209,120.028 279.146,119.118 279.146,117.996 C279.146,116.874 278.209,115.965 277.055,115.965 C275.9,115.965 274.964,116.874 274.964,117.996 C274.964,119.118 275.9,120.028 277.055,120.028 z" fill="#FFFFFF"/>
      </g>
      <path d="M233.176,111.605 C230.839,117.479 234.742,122.838 237.97,128.027 C243.692,137.223 254.424,157.363 248.804,160.18 C243.185,162.997 234.574,163.539 231.594,161.418 C228.615,159.298 229.52,111.546 229.52,111.546 C229.52,111.546 235.513,105.732 233.176,111.605 z" fill="#592825"/>
      <path d="M240.141,187.398 C232.25,187.398 225.426,187.491 225.333,181.978 C225.24,176.466 232.25,177.365 240.141,177.365 C248.032,177.365 254.802,175.901 254.428,182.381 C254.055,188.862 248.032,187.398 240.141,187.398 z" fill="#5E2A27"/>
      <path d="M230.685,184.731 C228.798,184.121 227.108,181.86 227.081,180.621 C226.998,176.723 233.207,180.354 240.253,180.354 C247.298,180.354 253.015,176.098 252.681,180.68 C252.58,182.064 252.255,184.18 251.327,184.722 C249.182,185.976 245.343,185.406 240.425,185.406 C240.425,185.406 232.572,185.341 230.685,184.731 z" fill="#301614"/>
      <path d="M191.066,114.249 C178.321,114.249 176.033,118.25 176.033,112.334 C176.033,106.419 185.626,96.967 198.37,96.967 C211.115,96.967 222.185,106.419 222.185,112.334 C222.185,118.25 218.473,115.798 205.729,115.798 z" fill="#3E1C1A"/>
      <path d="M278.347,114.249 C291.092,114.249 293.38,118.25 293.38,112.334 C293.38,106.419 283.787,96.967 271.043,96.967 C258.298,96.967 247.228,106.419 247.228,112.334 C247.228,118.25 250.94,115.798 263.684,115.798 z" fill="#3E1C1A"/>
    </g>
    <g>
      <path d="M236.076,81.924 C239.231,58.822 201.587,70.326 201.587,60.404 C201.587,50.481 223.825,42.495 237.507,42.495 C251.19,42.495 265.264,53.435 265.264,63.357 C265.264,73.28 234.225,95.48 236.076,81.924 z" fill="#46201E"/>
      <path d="M242.043,70.614 C245.197,47.512 201.587,70.326 201.587,60.404 C201.587,50.481 223.825,42.495 237.507,42.495 C251.19,42.495 265.264,53.435 265.264,63.357 C265.264,73.28 240.191,84.17 242.043,70.614 z" fill="#2F1514"/>
    </g>
  </g>
</svg>
